<svg width="617" height="221" viewBox="0 0 617 221" fill="none" xmlns="http://www.w3.org/2000/svg">
<path d="M432.149 220.08C432.149 220.08 473.549 82.6398 546.569 10.6798C551.479 5.83985 559.789 8.31985 561.209 15.0599C570.679 60.1499 585.899 196.11 432.149 220.08Z" fill="#C0CFEB"/>
<path d="M446.579 211.92C446.219 212.23 446.639 212.79 447.039 212.52C461.749 202.89 519.279 154.71 545.539 53.3699C545.619 53.0399 545.149 52.8899 545.039 53.2099C536.769 76.5699 503.559 162.54 446.579 211.92Z" fill="#DDE4F4"/>
<path d="M39.6399 6.18005C60.5199 25.69 150.19 117.53 101.94 215.52C101 217.43 98.3799 217.67 97.1099 215.97C83.6099 197.86 25.5699 113.21 34.8699 8.02004C35.0899 5.65004 37.9099 4.56005 39.6399 6.18005Z" fill="#98B1DC"/>
<path d="M50.9897 37.1099C50.7497 36.6799 51.3697 36.2999 51.6397 36.6999C64.2797 55.4199 99.6197 115.78 98.4397 204.13C98.4497 204.14 95.3397 116.73 50.9897 37.1099Z" fill="#DDE4F4"/>
<path d="M3.10983 90.8196C22.0598 98.2896 105.57 135.72 99.2298 213.33C99.1098 214.84 97.4298 215.69 96.1498 214.89C82.4498 206.41 21.8098 165.48 0.429834 93.2796C-0.0501661 91.6596 1.53983 90.1996 3.10983 90.8196Z" fill="#C0CFEB"/>
<path d="M18.7394 108.36C18.4694 108.14 18.7794 107.72 19.0694 107.92C32.3494 117.02 71.5894 147.8 93.9394 206.7C93.9394 206.7 68.9894 149.55 18.7394 108.36Z" fill="#DDE4F4"/>
<path d="M614.99 135.06C594.63 134.3 503.12 135.11 477.82 208.76C477.33 210.19 478.52 211.64 480.02 211.43C495.96 209.15 567.94 195.97 616.46 138.4C617.54 137.1 616.67 135.12 614.99 135.06Z" fill="#98B1DC"/>
<path d="M593.64 144.86C593.98 144.76 593.86 144.26 593.52 144.33C577.7 147.35 529.42 159.81 485.33 204.81C485.33 204.8 531.09 162.45 593.64 144.86Z" fill="#DDE4F4"/>
<path d="M282.83 130.07C282.83 130.07 279.54 121.4 275.69 122.19C271.84 122.98 267.63 125.94 267.63 125.94L261.45 134.3C261.45 134.3 278.8 141.14 284.91 137.22C284.91 137.22 302.64 140.28 325.02 136.61C321.78 129.77 319.85 122.92 318.71 117.6C307.37 124.02 295.16 128.82 282.83 130.07Z" fill="url(#paint0_linear)"/>
<path d="M376.72 67.1597C376.72 67.1597 351.34 99.1297 318.7 117.6C319.83 122.92 321.77 129.77 325.01 136.61C341.94 133.83 361.54 127.2 378.15 112.47L376.72 67.1597Z" fill="url(#paint1_linear)"/>
<path d="M37.7502 81.8998L88.1302 208.61C90.6902 215.06 97.3502 218.91 104.22 217.92L236.34 208.16L188.75 73.4197C187.48 70.0897 184.25 67.9098 180.69 67.9998C157.53 68.5298 73.1602 70.6197 42.9702 73.2997C38.7802 73.6797 36.1502 78.0098 37.7502 81.8998Z" fill="url(#paint2_linear)"/>
<path d="M99.7598 212.17L49.4198 84.3297C48.3998 81.7497 50.2698 78.9496 53.0398 78.8796L177.46 74.1596C180.67 74.0396 183.6 75.9596 184.77 78.9396L230.34 203.57L99.7598 212.17Z" fill="url(#paint3_linear)"/>
<path d="M540.92 81.8998L490.54 208.61C487.98 215.06 481.32 218.91 474.45 217.92L342.33 208.67L389.92 73.4197C391.19 70.0897 394.42 67.9098 397.98 67.9998C421.14 68.5298 505.51 70.6197 535.7 73.2997C539.89 73.6797 542.52 78.0098 540.92 81.8998Z" fill="url(#paint4_linear)"/>
<path d="M478.91 212.17L529.25 84.3198C530.27 81.7398 528.4 78.9398 525.63 78.8698L401.21 74.1499C398 74.0299 395.07 75.9498 393.9 78.9298L348.33 203.56L478.91 212.17Z" fill="#E3C057"/>
<path d="M186.5 71.3896L188.08 113.71C192.56 115.25 196.82 116.45 200.87 117.34C203.41 109.17 209 99.1396 213.57 91.6796C196.76 85.7396 186.5 71.3896 186.5 71.3896Z" fill="#E3C057"/>
<path d="M270.44 70.6699C247.38 95.5699 228.71 97.0399 213.57 91.6899C208.99 99.1499 203.41 109.17 200.87 117.35C262.46 130.93 276.96 74.3099 276.96 74.3099L270.44 70.6699Z" fill="url(#paint5_linear)"/>
<path d="M275.12 68.0297C275.12 68.0297 277.78 65.1796 282.69 66.0696C287.61 66.9696 291.98 68.6696 295.05 66.0696C298.11 63.4696 299.19 66.9596 299.19 66.9596L290.02 73.9296L275.12 68.0297Z" fill="url(#paint6_linear)"/>
<path d="M269.63 72.9001C269.63 72.9001 271.45 65.2901 276.94 66.3301C282.43 67.3701 294.88 74.1501 298.09 72.9001C301.3 71.6501 305.4 68.67 307.51 69.72L303.8 74.3301C303.8 74.3301 313.33 68.8301 314.98 72.2101L299.12 81.1401C299.11 81.1401 275.9 78.8201 269.63 72.9001Z" fill="url(#paint7_linear)"/>
<path d="M106.66 210.86C106.66 210.86 98.7897 98.51 156.16 63.58C156.16 63.58 172.2 52.99 192.18 73.5C212.17 94.01 205.73 115.31 188.96 135.27C172.19 155.24 155.11 190.9 159.17 210.86H106.66Z" fill="#E3C057"/>
<path d="M185.08 32.98C185.06 34.32 165.96 61.45 165.96 61.45C165.96 61.45 169.39 68.2 185.76 73.69L199.89 44.64L185.08 32.98Z" fill="url(#paint8_linear)"/>
<path d="M177.561 126.14C177.561 126.14 213.801 156.49 252.941 143.25C255.371 142.43 258.021 142.61 260.291 143.8L271.541 149.74C276.261 152.23 282.111 150.6 284.851 146.01C286.411 143.4 287.751 140.41 288.011 137.55L266.001 128.64L267.621 125.94C267.621 125.94 256.871 125.03 254.061 132.73C254.061 132.73 233.591 141.25 199.061 103.27C199.061 103.27 183.391 116.6 177.561 126.14Z" fill="url(#paint9_linear)"/>
<path d="M175.61 126.01C175.46 126.01 175.3 125.97 175.16 125.87C159.85 115.53 152.65 98.8398 152.58 98.6698C152.41 98.2598 152.6 97.7898 153 97.6198C153.41 97.4498 153.88 97.6398 154.05 98.0498C154.12 98.2098 161.15 114.48 176.05 124.55C176.42 124.8 176.51 125.3 176.27 125.66C176.12 125.88 175.87 126.01 175.61 126.01Z" fill="#C59F2E"/>
<path d="M198.34 102.94C198.08 102.94 197.82 102.81 197.67 102.57C197.62 102.5 192.96 95.2398 184.08 79.3298C181.37 74.4898 177.82 71.4197 173.53 70.2197C166.4 68.2197 159.53 72.0498 159.46 72.0898C159.08 72.3098 158.59 72.1697 158.37 71.7897C158.15 71.4097 158.29 70.9198 158.67 70.6998C158.97 70.5298 166.17 66.5097 173.95 68.6797C178.68 69.9997 182.56 73.3198 185.49 78.5598C194.34 94.4098 198.99 101.64 199.03 101.71C199.27 102.08 199.16 102.58 198.79 102.82C198.64 102.9 198.49 102.94 198.34 102.94Z" fill="#C59F2E"/>
<path d="M200.12 17.4297C200.12 17.4297 206.92 33.0397 207.37 41.2397C207.83 49.4397 209.59 54.7497 200.12 56.3997C190.64 58.0497 182.66 53.3297 178.34 45.1697C178.34 45.1697 171.56 32.5897 173.08 27.4397C174.6 22.2897 200.12 17.4297 200.12 17.4297Z" fill="url(#paint10_linear)"/>
<path d="M181.57 39.2998L182.11 39.0598C182.8 38.7598 183.09 37.9398 182.75 37.2698C181.41 34.6898 178.81 28.7698 182.17 27.3898C186.51 25.6098 203.69 22.1098 207.39 16.0098C210.95 10.1498 207.8 2.58983 203.05 0.43983C202.73 0.29983 202.36 0.409828 202.2 0.719828L201.8 1.46983C201.53 1.97983 200.77 1.89983 200.61 1.34983C200.46 0.819833 199.75 0.70982 199.45 1.17982C198.31 2.99982 195.23 5.95984 187.01 7.47984C175.32 9.63984 167.59 14.3698 167.4 22.4498C167.39 22.9598 166.84 23.2498 166.4 22.9798C165.54 22.4498 164.16 22.2098 162.31 23.7598C159.1 26.4598 160.41 33.4598 167.45 39.2198C167.78 39.4898 167.78 40.0198 167.42 40.2498C166.14 41.0798 164.24 43.0598 169.17 45.6898C174.27 48.4198 178.07 48.1898 179.54 47.9498C179.9 47.8898 180.14 47.5398 180.06 47.1798L178.5 40.0798C178.41 39.6798 178.72 39.2998 179.13 39.2998H181.57V39.2998Z" fill="#603913"/>
<path d="M181.861 40.7996C181.861 40.7996 179.271 30.8296 174.801 33.6196C170.331 36.4196 177.121 44.7996 180.721 45.1696L181.861 40.7996Z" fill="url(#paint11_linear)"/>
<path d="M260.29 143.8C260.29 143.8 269.5 152.81 271.28 151.5C271.91 151.03 273.51 149.34 275.06 147.45C276.15 146.12 276.27 144.24 275.33 142.79L273.16 139.44C271.09 136.25 266.66 135.58 263.79 138.07C262.33 139.34 261.02 141.16 260.29 143.8Z" fill="url(#paint12_linear)"/>
<path d="M405.431 209.21C405.431 209.21 405.371 168.73 381.831 126.94C374.471 113.87 371.851 98.6498 374.151 83.8198L376.731 67.1698C376.731 67.1698 409.031 56.2399 444.831 66.7099C444.831 66.7099 494.471 107.68 461.291 212.48L405.431 209.21Z" fill="url(#paint13_linear)"/>
<path d="M382.22 45.9098L390.59 66.0298C391.12 67.2998 392.26 68.2098 393.62 68.4398C398.45 69.2698 410.13 70.5598 417.8 65.5198C418.71 64.9198 418.95 63.6798 418.32 62.7798L402.85 40.5698L382.22 45.9098Z" fill="url(#paint14_linear)"/>
<path d="M402.88 140.46C401.73 140.76 401.15 142.06 401.71 143.12L425.94 189.58C426.35 190.36 427.25 190.75 428.1 190.51L507.35 167.63C508.34 167.35 508.91 166.31 508.62 165.33L494.97 118.07C494.69 117.1 493.69 116.53 492.71 116.79L402.88 140.46Z" fill="#C0CFEB"/>
<path d="M407.99 135C406.86 135.27 406.21 136.47 406.61 137.57L426 190.25C426.35 191.21 427.39 191.73 428.37 191.45L507.38 168.64C508.36 168.36 508.96 167.36 508.74 166.36L497.79 115.65C497.56 114.58 496.5 113.91 495.44 114.17L407.99 135Z" fill="#98B1DC"/>
<path d="M414.869 129.69C413.479 129.9 412.569 131.25 412.889 132.61L426.059 189.48C426.369 190.82 427.749 191.63 429.069 191.25L506.889 168.78C508.139 168.42 508.879 167.13 508.549 165.87L496.579 119.45C496.269 118.25 495.109 117.49 493.889 117.67L414.869 129.69Z" fill="url(#paint15_linear)"/>
<path d="M477.86 151.38C483.9 105.76 448.74 70.6699 448.74 70.6699L427.82 95.0599C443.7 114.86 451.25 133 454.7 147.24C459.28 145.91 470.29 143.8 477.86 151.38Z" fill="url(#paint16_linear)"/>
<path d="M454.71 147.78C454.47 147.78 454.25 147.62 454.19 147.37C449.91 129.7 440.9 112.21 427.41 95.4C427.23 95.17 427.26 94.83 427.49 94.65C427.72 94.46 428.06 94.5 428.24 94.73C441.83 111.67 450.91 129.3 455.22 147.12C455.29 147.41 455.11 147.7 454.83 147.77C454.79 147.77 454.75 147.78 454.71 147.78Z" fill="url(#paint17_linear)"/>
<path d="M454.71 147.24C457.92 160.48 457.58 170.36 457.09 175.08C456.91 176.86 455.48 178.25 453.69 178.37C451.66 178.51 448.91 178.7 446.44 178.84C443.73 179 440.73 177.28 438.72 175.85C437.69 175.12 436.37 176.26 436.94 177.38C438.44 180.32 442.25 182.93 444.87 184.47C445.82 185.03 445.65 186.46 444.58 186.76L433.36 189.94C451.8 207.31 463.98 187.87 463.98 187.87C472.12 175.29 476.33 162.99 477.87 151.37C470.29 143.8 459.28 145.91 454.71 147.24Z" fill="url(#paint18_linear)"/>
<path d="M390.88 15.1299C390.53 15.4599 376.04 43.9199 376.04 43.9199L392.47 51.8499L410.21 26.9199C410.21 26.9099 396.77 9.57986 390.88 15.1299Z" fill="url(#paint19_linear)"/>
<path d="M402.74 29.9L394.55 43.56C394.43 43.77 394.28 43.95 394.1 44.12C393.12 45.03 389.79 47.67 387.21 44.07C385.01 41.01 382.95 38.22 380.74 37.07C379.45 36.4 377.86 36.93 377.21 38.23C375.86 40.91 373.25 46.36 371.6 51.53C371.19 52.83 371.86 54.2199 373.12 54.7299C376.45 56.0799 383.02 58.51 388.85 59.32C389.81 59.45 390.76 59.05 391.33 58.27C393.84 54.83 400.91 45.22 403.33 42.82C405.57 40.59 409.71 41.43 411.58 41.96C412.29 42.16 413.04 42.07 413.67 41.69C415.56 40.55 418.86 37.71 415.84 32.91C415.09 31.72 415.47 30.12 416.65 29.35C418.76 27.96 421.06 25.35 418.87 21.13C416.66 16.85 412.71 16.4699 410.02 16.7999C408.83 16.9499 407.62 16.32 407.17 15.21C406.97 14.72 406.57 14.3 405.82 14.15C404.41 13.86 403.49 12.57 403.76 11.16C404.23 8.73997 403.88 5.59996 400.01 3.46996C392.92 -0.430037 386.71 5.91996 385.14 11.28C383.56 16.64 391.49 20.43 396.47 21.06C400.13 21.52 402.14 25.5199 402.95 27.6099C403.23 28.3599 403.16 29.21 402.74 29.9Z" fill="#603913"/>
<path d="M400.25 47.8399C400.25 47.8399 403.4 38.6199 407.44 38.9599C411.47 39.2999 414.65 43.3199 409.65 47.8299C403.42 53.4499 400.25 47.8399 400.25 47.8399Z" fill="url(#paint20_linear)"/>
<path d="M281.26 213.8C281.26 216.16 279.35 218.08 276.98 218.08H103.22C99.6302 218.08 96.7202 215.17 96.7202 211.58L93.9902 208.4L274.41 206.85C278.21 206.91 281.26 210.01 281.26 213.8Z" fill="url(#paint21_linear)"/>
<path d="M297.41 213.8C297.41 216.16 299.32 218.08 301.69 218.08H475.45C479.04 218.08 481.95 215.17 481.95 211.58L484.68 208.4L304.26 206.85C300.46 206.91 297.41 210.01 297.41 213.8Z" fill="url(#paint22_linear)"/>
<defs>
<linearGradient id="paint0_linear" x1="266.412" y1="146.076" x2="302.964" y2="127.8" gradientUnits="userSpaceOnUse">
<stop stop-color="#F5928F"/>
<stop offset="1" stop-color="#F8B2B1"/>
</linearGradient>
<linearGradient id="paint1_linear" x1="359.529" y1="-19.2751" x2="349.559" y2="101.361" gradientUnits="userSpaceOnUse">
<stop stop-color="#201B59"/>
<stop offset="1" stop-color="#2D2D84"/>
</linearGradient>
<linearGradient id="paint2_linear" x1="37.2758" y1="143.041" x2="236.338" y2="143.041" gradientUnits="userSpaceOnUse">
<stop stop-color="#201B59"/>
<stop offset="1" stop-color="#2D2D84"/>
</linearGradient>
<linearGradient id="paint3_linear" x1="200.734" y1="180.094" x2="-18.4333" y2="47.2347" gradientUnits="userSpaceOnUse">
<stop stop-color="#4C57A6"/>
<stop offset="1" stop-color="#5560AB"/>
</linearGradient>
<linearGradient id="paint4_linear" x1="342.331" y1="143.041" x2="541.394" y2="143.041" gradientUnits="userSpaceOnUse">
<stop stop-color="#201B59"/>
<stop offset="1" stop-color="#2D2D84"/>
</linearGradient>
<linearGradient id="paint5_linear" x1="187.466" y1="126.794" x2="285.654" y2="70.4729" gradientUnits="userSpaceOnUse">
<stop stop-color="#F5928F"/>
<stop offset="1" stop-color="#F8B2B1"/>
</linearGradient>
<linearGradient id="paint6_linear" x1="186.871" y1="125.757" x2="285.059" y2="69.4354" gradientUnits="userSpaceOnUse">
<stop stop-color="#F5928F"/>
<stop offset="1" stop-color="#F8B2B1"/>
</linearGradient>
<linearGradient id="paint7_linear" x1="189.197" y1="129.814" x2="287.386" y2="73.4926" gradientUnits="userSpaceOnUse">
<stop stop-color="#F5928F"/>
<stop offset="1" stop-color="#F8B2B1"/>
</linearGradient>
<linearGradient id="paint8_linear" x1="190.973" y1="38.7125" x2="174.525" y2="70.1129" gradientUnits="userSpaceOnUse">
<stop stop-color="#F5928F"/>
<stop offset="1" stop-color="#F8B2B1"/>
</linearGradient>
<linearGradient id="paint9_linear" x1="177.772" y1="95.2093" x2="248.547" y2="142.559" gradientUnits="userSpaceOnUse">
<stop stop-color="#F5928F"/>
<stop offset="1" stop-color="#F8B2B1"/>
</linearGradient>
<linearGradient id="paint10_linear" x1="178.217" y1="13.2943" x2="203.138" y2="54.1647" gradientUnits="userSpaceOnUse">
<stop stop-color="#F5928F"/>
<stop offset="1" stop-color="#F8B2B1"/>
</linearGradient>
<linearGradient id="paint11_linear" x1="166.518" y1="20.4281" x2="191.439" y2="61.2986" gradientUnits="userSpaceOnUse">
<stop stop-color="#F5928F"/>
<stop offset="1" stop-color="#F8B2B1"/>
</linearGradient>
<linearGradient id="paint12_linear" x1="266.077" y1="145.407" x2="302.63" y2="127.131" gradientUnits="userSpaceOnUse">
<stop stop-color="#F5928F"/>
<stop offset="1" stop-color="#F8B2B1"/>
</linearGradient>
<linearGradient id="paint13_linear" x1="434.194" y1="-13.1043" x2="424.224" y2="107.531" gradientUnits="userSpaceOnUse">
<stop stop-color="#201B59"/>
<stop offset="1" stop-color="#2D2D84"/>
</linearGradient>
<linearGradient id="paint14_linear" x1="399.168" y1="48.8194" x2="407.143" y2="86.0365" gradientUnits="userSpaceOnUse">
<stop stop-color="#F5928F"/>
<stop offset="1" stop-color="#F8B2B1"/>
</linearGradient>
<linearGradient id="paint15_linear" x1="459.255" y1="142.659" x2="481.001" y2="240.18" gradientUnits="userSpaceOnUse">
<stop stop-color="#4C57A6"/>
<stop offset="1" stop-color="#5560AB"/>
</linearGradient>
<linearGradient id="paint16_linear" x1="463.958" y1="-10.6448" x2="453.988" y2="109.991" gradientUnits="userSpaceOnUse">
<stop stop-color="#201B59"/>
<stop offset="1" stop-color="#2D2D84"/>
</linearGradient>
<linearGradient id="paint17_linear" x1="419.5" y1="109.56" x2="463.034" y2="132.737" gradientUnits="userSpaceOnUse">
<stop stop-color="#4C57A6"/>
<stop offset="1" stop-color="#5560AB"/>
</linearGradient>
<linearGradient id="paint18_linear" x1="492.114" y1="102.472" x2="458.984" y2="166.183" gradientUnits="userSpaceOnUse">
<stop stop-color="#F5928F"/>
<stop offset="1" stop-color="#F8B2B1"/>
</linearGradient>
<linearGradient id="paint19_linear" x1="374.604" y1="21.6441" x2="399.859" y2="37.9265" gradientUnits="userSpaceOnUse">
<stop stop-color="#F5928F"/>
<stop offset="1" stop-color="#F8B2B1"/>
</linearGradient>
<linearGradient id="paint20_linear" x1="404.49" y1="85.8892" x2="406.3" y2="43.8252" gradientUnits="userSpaceOnUse">
<stop stop-color="#F5928F"/>
<stop offset="1" stop-color="#F8B2B1"/>
</linearGradient>
<linearGradient id="paint21_linear" x1="187.044" y1="182.382" x2="188.403" y2="249.316" gradientUnits="userSpaceOnUse">
<stop stop-color="#201B59"/>
<stop offset="1" stop-color="#2D2D84"/>
</linearGradient>
<linearGradient id="paint22_linear" x1="390.376" y1="178.254" x2="391.735" y2="245.193" gradientUnits="userSpaceOnUse">
<stop stop-color="#201B59"/>
<stop offset="1" stop-color="#2D2D84"/>
</linearGradient>
</defs>
</svg>
